HIERARCHY
ROOT newVegas:Hips
{
	OFFSET 0.000000 96.479958 0.000000
	CHANNELS 6 Xposition Yposition Zposition Xrotation Yrotation Zrotation
	JOINT newVegas:Pelvis
	{
		OFFSET 0.000000 0.000000 0.000000
		CHANNELS 3 Xrotation Yrotation Zrotation
		JOINT newVegas:LeftUpLeg
		{
			OFFSET 18.735201 -5.666702 -4.541200
			CHANNELS 3 Xrotation Yrotation Zrotation
			JOINT newVegas:LeftLeg
			{
				OFFSET -0.021200 -31.938179 0.493100
				CHANNELS 3 Xrotation Yrotation Zrotation
				JOINT newVegas:LeftFoot
				{
					OFFSET 0.021200 -31.938179 -4.336299
					CHANNELS 3 Xrotation Yrotation Zrotation
					JOINT newVegas:LeftToeBase
					{
						OFFSET 0.943001 -26.722000 15.023500
						CHANNELS 3 Xrotation Yrotation Zrotation
						End Site
						{
							OFFSET 0.000000 30.670183 0.000000
						}
					}
				}
				JOINT newVegas:Left_PantLeg
				{
					OFFSET 0.663870 -9.044666 -1.108900
					CHANNELS 3 Xrotation Yrotation Zrotation
					End Site
					{
						OFFSET 1.415995 20.635357 0.000000
					}
				}
			}
		}
		JOINT newVegas:RightUpLeg
		{
			OFFSET -18.735201 -5.666702 -4.541200
			CHANNELS 3 Xrotation Yrotation Zrotation
			JOINT newVegas:RightLeg
			{
				OFFSET 0.018946 -31.938133 0.493100
				CHANNELS 3 Xrotation Yrotation Zrotation
				JOINT newVegas:RightFoot
				{
					OFFSET -0.018946 -31.938126 -4.336299
					CHANNELS 3 Xrotation Yrotation Zrotation
					JOINT newVegas:RightToeBase
					{
						OFFSET -0.943001 -26.722004 15.023500
						CHANNELS 3 Xrotation Yrotation Zrotation
						End Site
						{
							OFFSET 0.000000 30.670187 0.000000
						}
					}
				}
				JOINT newVegas:Right_PantLeg
				{
					OFFSET -0.661674 -9.044716 -1.108900
					CHANNELS 3 Xrotation Yrotation Zrotation
					End Site
					{
						OFFSET -1.415958 20.635269 0.000000
					}
				}
			}
		}
	}
	JOINT newVegas:Spine
	{
		OFFSET 0.000000 10.199997 -0.299500
		CHANNELS 3 Xrotation Yrotation Zrotation
		JOINT newVegas:Spine1
		{
			OFFSET 0.000000 11.900002 -1.516600
			CHANNELS 3 Xrotation Yrotation Zrotation
			JOINT newVegas:Spine2
			{
				OFFSET 0.000000 13.600006 -2.842500
				CHANNELS 3 Xrotation Yrotation Zrotation
				JOINT newVegas:Neck
				{
					OFFSET 0.000000 9.624100 -2.890100
					CHANNELS 3 Xrotation Yrotation Zrotation
					JOINT newVegas:Head
					{
						OFFSET 0.000000 14.068802 -1.351900
						CHANNELS 3 Xrotation Yrotation Zrotation
						JOINT newVegas:Hair_Back
						{
							OFFSET 0.000000 3.231903 -17.524799
							CHANNELS 3 Xrotation Yrotation Zrotation
							End Site
							{
								OFFSET 0.000000 19.849884 0.000000
							}
						}
						JOINT newVegas:Hair_Front
						{
							OFFSET 0.000000 31.260406 4.573800
							CHANNELS 3 Xrotation Yrotation Zrotation
							JOINT newVegas:Hair_Front1
							{
								OFFSET 0.000000 2.284103 11.993300
								CHANNELS 3 Xrotation Yrotation Zrotation
								JOINT newVegas:Hair_Front2
								{
									OFFSET 0.000000 2.284103 11.993300
									CHANNELS 3 Xrotation Yrotation Zrotation
									End Site
									{
										OFFSET 0.000000 12.208862 0.000000
									}
								}
							}
						}
						JOINT newVegas:Jowel
						{
							OFFSET 0.000000 -7.458206 6.864100
							CHANNELS 3 Xrotation Yrotation Zrotation
							End Site
							{
								OFFSET 0.000000 19.849884 0.000000
							}
						}
					}
				}
				JOINT newVegas:LeftShoulder
				{
					OFFSET 15.263000 10.923401 -0.547700
					CHANNELS 3 Xrotation Yrotation Zrotation
					JOINT newVegas:LeftArm
					{
						OFFSET 25.438599 -2.830597 -13.032500
						CHANNELS 3 Xrotation Yrotation Zrotation
						JOINT newVegas:LeftForeArm
						{
							OFFSET 29.960503 0.000000 0.000000
							CHANNELS 3 Xrotation Yrotation Zrotation
							JOINT newVegas:LeftHand
							{
								OFFSET 27.849251 0.000000 0.000000
								CHANNELS 3 Xrotation Yrotation Zrotation
								JOINT newVegas:LeftHandThumb1
								{
									OFFSET 4.487587 -3.305161 6.305391
									CHANNELS 3 Xrotation Yrotation Zrotation
									JOINT newVegas:LeftHandThumb2
									{
										OFFSET 5.480453 -3.164139 3.164143
										CHANNELS 3 Xrotation Yrotation Zrotation
										JOINT newVegas:LeftHandThumb3
										{
											OFFSET 5.159721 -2.978973 2.978967
											CHANNELS 3 Xrotation Yrotation Zrotation
											End Site
											{
												OFFSET 2.494507 5.926697 1.738678
											}
										}
									}
								}
								JOINT newVegas:LeftHandIndex1
								{
									OFFSET 18.578728 -0.527832 5.208049
									CHANNELS 3 Xrotation Yrotation Zrotation
									JOINT newVegas:LeftHandIndex2
									{
										OFFSET 3.192009 0.000000 0.000000
										CHANNELS 3 Xrotation Yrotation Zrotation
										JOINT newVegas:LeftHandIndex3
										{
											OFFSET 3.835129 0.000000 0.000000
											CHANNELS 3 Xrotation Yrotation Zrotation
											End Site
											{
												OFFSET -0.034599 3.816971 0.371180
											}
										}
									}
								}
								JOINT newVegas:LeftHandMiddle1
								{
									OFFSET 18.476105 0.000000 0.000000
									CHANNELS 3 Xrotation Yrotation Zrotation
									JOINT newVegas:LeftHandMiddle2
									{
										OFFSET 3.324875 0.000000 0.000000
										CHANNELS 3 Xrotation Yrotation Zrotation
										JOINT newVegas:LeftHandMiddle3
										{
											OFFSET 4.596550 0.000000 0.000000
											CHANNELS 3 Xrotation Yrotation Zrotation
											End Site
											{
												OFFSET 0.057701 4.578827 0.399218
											}
										}
									}
								}
								JOINT newVegas:LeftHandRing1
								{
									OFFSET 17.732719 0.121887 -4.201567
									CHANNELS 3 Xrotation Yrotation Zrotation
									JOINT newVegas:LeftHandRing2
									{
										OFFSET 2.733170 0.000000 0.000000
										CHANNELS 3 Xrotation Yrotation Zrotation
										JOINT newVegas:LeftHandRing3
										{
											OFFSET 3.178268 0.000000 0.000000
											CHANNELS 3 Xrotation Yrotation Zrotation
											End Site
											{
												OFFSET 0.119102 3.170624 0.185394
											}
										}
									}
								}
								JOINT newVegas:LeftHandPinky1
								{
									OFFSET 15.989624 -0.606689 -7.535461
									CHANNELS 3 Xrotation Yrotation Zrotation
									JOINT newVegas:LeftHandPinky2
									{
										OFFSET 2.538986 0.000000 0.000000
										CHANNELS 3 Xrotation Yrotation Zrotation
										JOINT newVegas:LeftHandPinky3
										{
											OFFSET 2.593102 0.000000 0.000000
											CHANNELS 3 Xrotation Yrotation Zrotation
											End Site
											{
												OFFSET -0.150902 2.584198 0.152708
											}
										}
									}
								}
							}
							JOINT newVegas:Left_Sleeve
							{
								OFFSET 0.267448 -0.649796 0.577675
								CHANNELS 3 Xrotation Yrotation Zrotation
								End Site
								{
									OFFSET 0.000000 15.991241 0.000000
								}
							}
							JOINT newVegas:Left_CapeC
							{
								OFFSET 15.715958 -8.608795 -6.935905
								CHANNELS 3 Xrotation Yrotation Zrotation
								JOINT newVegas:Left_CapeC1
								{
									OFFSET 0.000000 -8.688499 0.000000
									CHANNELS 3 Xrotation Yrotation Zrotation
									End Site
									{
										OFFSET 0.000000 8.688499 0.000000
									}
								}
							}
						}
						JOINT newVegas:Left_CapeB
						{
							OFFSET 26.118385 -8.608795 -7.079235
							CHANNELS 3 Xrotation Yrotation Zrotation
							JOINT newVegas:Left_CapeB1
							{
								OFFSET 0.000000 -8.688499 0.000000
								CHANNELS 3 Xrotation Yrotation Zrotation
								End Site
								{
									OFFSET 0.000000 8.688499 0.000000
								}
							}
						}
						JOINT newVegas:Left_CapeA
						{
							OFFSET 5.115639 -8.608795 -10.395809
							CHANNELS 3 Xrotation Yrotation Zrotation
							JOINT newVegas:Left_CapeA1
							{
								OFFSET 0.000000 -8.688499 0.000000
								CHANNELS 3 Xrotation Yrotation Zrotation
								End Site
								{
									OFFSET 0.000000 8.688499 0.000000
								}
							}
						}
					}
				}
				JOINT newVegas:RightShoulder
				{
					OFFSET -15.263000 10.923401 -0.547700
					CHANNELS 3 Xrotation Yrotation Zrotation
					JOINT newVegas:RightArm
					{
						OFFSET -25.438599 -2.830597 -13.032500
						CHANNELS 3 Xrotation Yrotation Zrotation
						JOINT newVegas:RightForeArm
						{
							OFFSET -29.960503 0.000000 0.000000
							CHANNELS 3 Xrotation Yrotation Zrotation
							JOINT newVegas:RightHand
							{
								OFFSET -27.849251 0.000000 0.000000
								CHANNELS 3 Xrotation Yrotation Zrotation
								JOINT newVegas:RightHandThumb1
								{
									OFFSET -4.487587 -3.305161 6.305391
									CHANNELS 3 Xrotation Yrotation Zrotation
									JOINT newVegas:RightHandThumb2
									{
										OFFSET -5.480453 -3.164139 3.164143
										CHANNELS 3 Xrotation Yrotation Zrotation
										JOINT newVegas:RightHandThumb3
										{
											OFFSET -5.159721 -2.978973 2.978967
											CHANNELS 3 Xrotation Yrotation Zrotation
											End Site
											{
												OFFSET -2.494507 5.926697 1.738678
											}
										}
									}
								}
								JOINT newVegas:RightHandIndex1
								{
									OFFSET -18.578728 -0.527832 5.208049
									CHANNELS 3 Xrotation Yrotation Zrotation
									JOINT newVegas:RightHandIndex2
									{
										OFFSET -3.192009 0.000000 0.000000
										CHANNELS 3 Xrotation Yrotation Zrotation
										JOINT newVegas:RightHandIndex3
										{
											OFFSET -3.835129 0.000000 0.000000
											CHANNELS 3 Xrotation Yrotation Zrotation
											End Site
											{
												OFFSET 0.034599 3.816971 0.371180
											}
										}
									}
								}
								JOINT newVegas:RightHandMiddle1
								{
									OFFSET -18.476105 0.000000 0.000000
									CHANNELS 3 Xrotation Yrotation Zrotation
									JOINT newVegas:RightHandMiddle2
									{
										OFFSET -3.324875 0.000000 0.000000
										CHANNELS 3 Xrotation Yrotation Zrotation
										JOINT newVegas:RightHandMiddle3
										{
											OFFSET -4.596550 0.000000 0.000000
											CHANNELS 3 Xrotation Yrotation Zrotation
											End Site
											{
												OFFSET -0.057701 4.578827 0.399218
											}
										}
									}
								}
								JOINT newVegas:RightHandRing1
								{
									OFFSET -17.732719 0.121887 -4.201567
									CHANNELS 3 Xrotation Yrotation Zrotation
									JOINT newVegas:RightHandRing2
									{
										OFFSET -2.733170 0.000000 0.000000
										CHANNELS 3 Xrotation Yrotation Zrotation
										JOINT newVegas:RightHandRing3
										{
											OFFSET -3.178268 0.000000 0.000000
											CHANNELS 3 Xrotation Yrotation Zrotation
											End Site
											{
												OFFSET -0.119102 3.170624 0.185394
											}
										}
									}
								}
								JOINT newVegas:RightHandPinky1
								{
									OFFSET -15.989624 -0.606689 -7.535461
									CHANNELS 3 Xrotation Yrotation Zrotation
									JOINT newVegas:RightHandPinky2
									{
										OFFSET -2.538986 0.000000 0.000000
										CHANNELS 3 Xrotation Yrotation Zrotation
										JOINT newVegas:RightHandPinky3
										{
											OFFSET -2.593102 0.000000 0.000000
											CHANNELS 3 Xrotation Yrotation Zrotation
											End Site
											{
												OFFSET 0.150902 2.584198 0.152708
											}
										}
									}
								}
							}
							JOINT newVegas:Right_CapeC
							{
								OFFSET -15.715958 -8.608795 -6.935905
								CHANNELS 3 Xrotation Yrotation Zrotation
								JOINT newVegas:Right_CapeC1
								{
									OFFSET 0.000000 -8.688499 0.000000
									CHANNELS 3 Xrotation Yrotation Zrotation
									End Site
									{
										OFFSET 0.000000 8.688499 0.000000
									}
								}
							}
							JOINT newVegas:Right_Sleeve
							{
								OFFSET -0.267448 -0.649994 0.577675
								CHANNELS 3 Xrotation Yrotation Zrotation
								End Site
								{
									OFFSET 0.000000 15.991302 0.000000
								}
							}
						}
						JOINT newVegas:Right_CapeA
						{
							OFFSET -5.115540 -8.608795 -10.395824
							CHANNELS 3 Xrotation Yrotation Zrotation
							JOINT newVegas:Right_CapeA1
							{
								OFFSET 0.000000 -8.688499 0.000000
								CHANNELS 3 Xrotation Yrotation Zrotation
								End Site
								{
									OFFSET 0.000000 8.688499 0.000000
								}
							}
						}
						JOINT newVegas:Right_CapeB
						{
							OFFSET -26.118187 -8.608795 -7.079266
							CHANNELS 3 Xrotation Yrotation Zrotation
							JOINT newVegas:Right_CapeB1
							{
								OFFSET 0.000000 -8.688499 0.000000
								CHANNELS 3 Xrotation Yrotation Zrotation
								End Site
								{
									OFFSET 0.000000 8.688499 0.000000
								}
							}
						}
					}
				}
				JOINT newVegas:Left_Collar
				{
					OFFSET 18.625099 8.655502 8.828100
					CHANNELS 3 Xrotation Yrotation Zrotation
					JOINT newVegas:Left_Collar1
					{
						OFFSET 14.783401 10.540405 -1.259500
						CHANNELS 3 Xrotation Yrotation Zrotation
						End Site
						{
							OFFSET 0.000000 18.199875 0.000000
						}
					}
				}
				JOINT newVegas:Collar_Back
				{
					OFFSET 0.000000 15.630707 -20.132601
					CHANNELS 3 Xrotation Yrotation Zrotation
					End Site
					{
						OFFSET 0.000000 22.523010 0.000000
					}
				}
				JOINT newVegas:Left_Peck
				{
					OFFSET 17.239599 -5.132599 25.482599
					CHANNELS 3 Xrotation Yrotation Zrotation
					End Site
					{
						OFFSET 0.000000 22.523010 0.000000
					}
				}
				JOINT newVegas:Right_Peck
				{
					OFFSET -17.239599 -5.132202 25.482599
					CHANNELS 3 Xrotation Yrotation Zrotation
					End Site
					{
						OFFSET 0.000000 22.523010 0.000000
					}
				}
				JOINT newVegas:Right_Collar
				{
					OFFSET -18.625099 8.655792 8.828100
					CHANNELS 3 Xrotation Yrotation Zrotation
					JOINT newVegas:Right_Collar1
					{
						OFFSET -14.783401 10.539993 -1.259500
						CHANNELS 3 Xrotation Yrotation Zrotation
						End Site
						{
							OFFSET 0.000000 18.199631 0.000000
						}
					}
				}
			}
		}
		JOINT newVegas:Belly
		{
			OFFSET 0.000000 -6.540398 9.014299
			CHANNELS 3 Xrotation Yrotation Zrotation
			End Site
			{
				OFFSET 0.000000 11.566666 0.000000
			}
		}
	}
	JOINT newVegas:ElvisFacialAnim_Joint
	{
		OFFSET 1.000000 -95.330101 -8.825800
		CHANNELS 3 Xrotation Yrotation Zrotation
		End Site
		{
			OFFSET 0.000000 35.315800 0.000000
		}
	}
}
MOTION
Frames: 4
Frame Time: 0.033333
-161.258438 66.144997 4.475466 33.826625 -34.522057 22.073592 0.000001 0.000001 -0.000001 -68.109779 -14.625532 35.966885 82.402250 8.784419 5.805862 10.419135 1.576112 -12.968702 -0.000001 -0.000001 -0.000003 -0.000001 0.000000 -0.000003 -97.046702 12.308394 -11.438122 98.837694 5.102486 6.240680 -27.844897 -1.621378 8.634633 0.000000 0.000001 -0.000000 0.000000 -0.000002 0.000001 16.660122 -6.305004 -8.359521 3.713071 3.365286 0.008558 4.836161 2.891607 -0.930676 0.049750 2.980969 -5.561864 0.049742 2.980974 -5.561857 -0.000002 0.000000 0.000000 0.049826 2.980965 -5.561865 0.049735 2.980980 -5.561860 0.000002 0.000000 -0.000001 -0.000002 0.000000 -0.000000 18.549122 -3.374769 6.994816 -103.124662 2.906098 -12.481310 -10.572095 -58.133611 -4.095643 -47.657297 2.722418 14.676731 17.551578 -5.699200 -12.932253 10.850509 26.127780 8.644748 0.000001 0.000001 -0.000003 13.980908 1.201516 -55.004360 0.370783 1.161632 -65.441880 -0.000000 -0.000001 0.000003 7.504734 1.174436 -63.778524 1.807786 1.475732 -64.568046 -0.000001 0.000000 -0.000001 8.574312 2.179094 -75.148986 -0.207697 1.009298 -57.855008 0.000001 0.000001 -0.000000 10.030126 13.637124 -84.750230 0.877193 0.062210 -64.595551 -0.000001 -0.000003 -0.000003 -0.000002 -0.000001 0.000001 -0.000002 -0.000001 0.000001 -0.000003 -0.000001 0.000002 0.000001 -0.000001 -0.000000 0.000001 -0.000002 -0.000002 0.000001 -0.000001 -0.000000 -0.000001 -0.000002 -0.000001 18.754554 18.784627 13.011136 -21.061561 -15.133976 42.468778 -15.840257 19.792941 7.060273 -1.745767 -5.699795 -11.292465 0.381310 -0.879205 -0.213915 5.453437 -13.411170 -2.699499 -0.000002 -0.000003 -0.000003 3.216362 -0.817992 18.611205 0.000468 -0.008852 18.733631 -0.000002 -0.000001 0.000004 -4.183236 -6.768631 20.647826 0.000940 -0.007806 17.695115 -0.000001 -0.000000 -0.000003 -2.564563 -11.494986 21.964150 0.001557 -0.007866 18.465128 -0.000000 -0.000003 -0.000001 -6.316853 -13.010361 22.412540 0.002293 -0.011108 25.101203 0.000000 0.000002 -0.000002 0.000001 0.000000 0.000001 0.000001 -0.000002 -0.000002 0.000001 0.000000 -0.000000 -0.000003 0.000000 -0.000001 -0.000003 0.000001 -0.000001 -0.000003 0.000000 -0.000001 -0.000003 0.000001 -0.000001 -0.000002 -0.000001 -0.000001 -0.000002 -0.000001 -0.000001 -0.000002 -0.000001 -0.000001 -0.000002 -0.000001 -0.000001 -0.000002 -0.000001 -0.000001 -0.000002 -0.000001 -0.000001 -0.000002 -0.000001 -0.000001 -0.000002 -0.000001 0.000002 0.000001 0.000001 -0.000001 
-168.095169 68.289322 3.354809 34.210618 -32.806205 22.067942 0.000002 0.000001 0.000001 -78.235842 -15.493019 31.120422 88.831152 12.685829 2.719219 2.744221 1.350509 -9.699629 -0.000000 -0.000000 -0.000003 -0.000001 -0.000000 -0.000000 -91.571841 5.362773 -6.576252 98.492229 0.213498 5.732818 -34.826592 -1.464996 3.548829 0.000000 0.000004 -0.000000 0.000001 0.000001 -0.000000 17.398245 -6.530736 -8.694952 3.445775 3.420109 0.114459 4.567384 2.962889 -0.834976 0.045825 2.844959 -5.296979 0.045823 2.844960 -5.296965 0.000001 0.000000 0.000001 0.045872 2.845009 -5.296981 0.045822 2.844872 -5.296949 -0.000000 0.000001 0.000000 0.000001 0.000000 0.000001 19.763357 -3.713302 7.715220 -103.714565 2.507483 -12.918950 -12.091454 -58.329993 -5.396357 -47.530737 1.809350 14.665710 17.551578 -5.699200 -12.932251 10.850513 26.127777 8.644753 -0.000003 0.000002 -0.000001 13.980908 1.201518 -55.004353 0.370783 1.161634 -65.441880 0.000002 0.000000 0.000001 7.504734 1.174440 -63.778531 1.807783 1.475732 -64.568046 0.000000 0.000002 0.000000 8.574312 2.179097 -75.148992 -0.207700 1.009298 -57.855008 0.000000 -0.000002 0.000000 10.030123 13.637116 -84.750230 0.877195 0.062209 -64.595551 0.000001 -0.000005 -0.000001 0.000002 -0.000001 -0.000000 0.000002 -0.000001 -0.000000 0.000001 -0.000001 0.000000 -0.000003 0.000003 0.000002 -0.000002 0.000002 0.000004 -0.000003 0.000003 0.000002 -0.000004 0.000002 0.000001 19.286253 19.665798 13.656922 -22.116685 -14.636880 40.865053 -17.092846 21.285685 7.562102 -0.935356 -3.136552 -11.610668 0.247448 -0.567314 -0.137492 5.291601 -12.994837 -2.634065 0.000006 -0.000002 -0.000001 3.203959 -0.822866 18.183413 0.000668 -0.008665 18.373699 -0.000002 0.000002 0.000001 -4.186917 -6.770013 20.164991 0.000837 -0.007578 17.072504 -0.000003 -0.000000 0.000001 -2.563769 -11.498840 21.380133 0.001530 -0.007709 18.051509 -0.000001 0.000003 -0.000003 -6.203262 -13.035487 21.571619 0.002173 -0.010785 24.354330 0.000001 0.000001 0.000001 -0.000000 0.000004 0.000001 0.000000 -0.000001 -0.000003 -0.000000 0.000004 0.000001 -0.000001 0.000000 -0.000000 -0.000000 0.000001 -0.000000 -0.000001 0.000000 -0.000000 -0.000000 0.000001 -0.000000 -0.000003 0.000001 -0.000002 -0.000003 0.000001 -0.000002 -0.000003 0.000001 -0.000002 -0.000003 0.000001 -0.000002 -0.000003 0.000001 -0.000002 -0.000003 0.000001 -0.000002 -0.000003 0.000001 -0.000002 0.000002 0.000003 -0.000003 0.000002 0.000001 0.000001 
-172.862152 69.915550 2.532204 34.471364 -31.142152 21.964903 -0.000001 -0.000001 0.000001 -91.439560 -13.944827 23.373987 94.912158 16.238244 0.543567 -3.864389 0.830836 -6.018648 0.000001 0.000000 0.000001 -0.000001 0.000000 0.000001 -86.859632 1.180578 -2.491601 96.041988 -3.003948 5.480019 -38.579804 -2.199359 0.042288 -0.000000 -0.000000 -0.000000 0.000003 0.000001 -0.000000 18.088796 -6.852399 -8.804261 3.203019 3.489964 0.123373 4.322752 3.033414 -0.838694 0.019157 2.743335 -4.953593 0.019147 2.743329 -4.953589 0.000001 0.000001 0.000001 0.019176 2.743326 -4.953587 0.019187 2.743322 -4.953591 0.000002 0.000000 -0.000000 0.000001 0.000001 0.000000 21.010939 -3.967367 8.575046 -104.225613 2.082699 -13.354044 -13.489764 -58.480722 -6.600481 -47.388337 0.747158 14.665453 17.551576 -5.699197 -12.932252 10.850514 26.127779 8.644751 0.000001 0.000000 -0.000004 13.980910 1.201517 -55.004357 0.370781 1.161635 -65.441873 0.000001 0.000003 0.000001 7.504734 1.174439 -63.778531 1.807782 1.475734 -64.568039 0.000001 -0.000001 0.000003 8.574312 2.179097 -75.148979 -0.207696 1.009298 -57.855001 -0.000000 -0.000002 -0.000000 10.030124 13.637123 -84.750230 0.877193 0.062212 -64.595551 0.000001 -0.000003 0.000000 0.000002 0.000001 -0.000002 0.000002 0.000001 -0.000002 0.000001 0.000001 -0.000002 -0.000000 0.000001 0.000005 -0.000000 0.000000 0.000004 -0.000000 0.000001 0.000005 -0.000002 -0.000000 0.000004 19.786209 21.159890 15.248558 -23.384980 -14.087957 38.821860 -17.883365 23.047604 7.838445 -0.100931 -0.666522 -12.034763 0.120727 -0.272906 -0.064503 5.146238 -12.621359 -2.574362 0.000000 -0.000003 0.000001 3.192840 -0.827098 17.796480 0.000865 -0.008448 18.051273 -0.000001 -0.000001 -0.000001 -4.190212 -6.771679 19.725976 0.000772 -0.007267 16.500467 0.000003 0.000002 0.000001 -2.562948 -11.503553 20.849074 0.004849 -0.007422 17.681705 0.000002 0.000002 0.000000 -6.094176 -13.049245 20.795682 0.001937 -0.010517 23.686394 -0.000003 0.000001 0.000002 -0.000001 -0.000001 -0.000003 0.000000 -0.000002 -0.000003 -0.000001 -0.000001 -0.000002 0.000001 0.000002 0.000000 0.000001 0.000003 -0.000000 0.000001 0.000002 0.000000 0.000001 0.000003 -0.000000 -0.000002 -0.000000 0.000000 -0.000002 -0.000000 0.000000 -0.000002 -0.000000 0.000000 -0.000002 -0.000000 0.000000 -0.000002 -0.000000 0.000000 -0.000002 -0.000000 0.000000 -0.000002 -0.000000 0.000000 -0.000002 0.000001 0.000000 -0.000001 -0.000001 0.000001 
-175.981384 70.993507 2.014549 34.701176 -29.754141 21.792984 -0.000002 -0.000002 0.000002 -103.338870 -9.510104 16.322612 96.219696 14.678309 -1.100364 -6.611095 0.686266 -5.524233 -0.000000 0.000000 -0.000002 0.000001 0.000000 -0.000001 -83.598961 -0.843843 0.690173 93.667951 -6.745765 5.198203 -40.386847 -2.164164 -0.931298 -0.000000 0.000003 0.000000 0.000000 0.000001 -0.000001 18.687391 -7.080181 -8.778770 2.995781 3.554786 0.096657 4.113690 3.093163 -0.876954 -0.009838 2.663691 -4.619272 -0.009835 2.663688 -4.619271 -0.000001 -0.000000 -0.000001 -0.009841 2.663683 -4.619267 -0.009768 2.663669 -4.619268 0.000001 -0.000001 0.000000 -0.000001 -0.000000 0.000000 21.589306 -4.061374 8.994331 -104.445627 1.884547 -13.553275 -14.220694 -58.531784 -7.232152 -47.259370 -0.240378 14.677050 17.551580 -5.699199 -12.932249 10.850509 26.127780 8.644748 0.000001 -0.000001 -0.000003 13.980905 1.201516 -55.004357 0.370784 1.161634 -65.441873 -0.000001 0.000003 0.000001 7.504733 1.174440 -63.778524 1.807784 1.475731 -64.568053 -0.000000 -0.000000 -0.000003 8.574310 2.179096 -75.148986 -0.207700 1.009300 -57.855001 -0.000000 -0.000001 0.000004 10.030122 13.637121 -84.750230 0.877192 0.062211 -64.595551 0.000001 -0.000005 -0.000001 -0.000001 0.000002 -0.000002 -0.000001 0.000002 -0.000002 -0.000002 0.000002 -0.000002 0.000001 0.000002 -0.000000 0.000001 0.000000 0.000002 0.000001 0.000002 -0.000000 -0.000001 0.000001 -0.000001 20.201871 22.894311 17.314854 -24.757595 -13.322826 36.655293 -18.354118 25.236775 7.952630 0.743027 1.709210 -12.248033 0.002819 0.000159 0.003930 5.020984 -12.299894 -2.522180 -0.000000 -0.000002 -0.000001 3.183220 -0.830753 17.459244 0.000771 -0.002916 17.774567 0.000004 0.000002 -0.000000 -4.193036 -6.769610 19.340534 0.000571 -0.004083 15.990065 -0.000001 -0.000001 0.000000 -2.562166 -11.508590 20.382292 0.007706 -0.003983 17.365319 0.000002 -0.000001 -0.000001 -5.989194 -13.046477 20.098716 -0.001149 -0.010373 23.114738 0.000001 -0.000002 -0.000000 0.000003 0.000002 -0.000000 0.000002 0.000004 0.000000 0.000003 0.000002 -0.000000 0.000001 0.000000 -0.000000 0.000001 0.000001 0.000001 0.000001 0.000000 -0.000000 0.000001 0.000001 0.000000 0.000002 0.000001 -0.000000 0.000002 0.000001 -0.000000 0.000002 0.000001 -0.000000 0.000002 0.000001 -0.000000 0.000002 0.000001 -0.000000 0.000002 0.000001 -0.000000 0.000002 0.000001 -0.000000 0.000002 0.000003 -0.000002 -0.000002 -0.000002 0.000002 
